<svg width="321.049" height="126.824" xmlns="http://www.w3.org/2000/svg" viewBox="89.476 11.588 321.049 126.824" style="background:0 0" preserveAspectRatio="xMidYMid"><defs><linearGradient id="editing-gradow-gradient" x2="1" y1=".5" y2=".5" gradientUnits="objectBoundingBox"><stop offset="0" stop-color="#e102bf"/><stop offset="1" stop-color="#0ff"/></linearGradient><filter id="editing-gradow-filter" x="-100%" y="-100%" width="300%" height="300%"><feFlood flood-color="rgba(0%,0%,0%,0)" result="flood"/><feComposite operator="in" in2="SourceAlpha" in="flood" result="shadow"/><feOffset dx="-4" dy="-4" in="SourceGraphic" result="offset-1"/><feOffset dx="4" dy="4" in="shadow" result="offset-2"/><feMerge><feMergeNode in="offset-2"/><feMergeNode in="offset-1"/></feMerge></filter></defs><path d="M4.8-11.84l.13-12.93q0-15.17-1.47-17.15-.71-.9-.71-1.25t.87-.83q.86-.48 3.36-1.06 2.49-.57 4.41-.57t1.92.89l-.13.84q-.76 6.91-.76 13.5t.38 14.72q.38 8.13.38 11.97 0 5.18-4 8.93-4 3.74-9.5 4.06-1.09-.13-1.09-.77 0-.45.29-.7.29-.26.67-.64.39-.39 1.41-1.99t1.79-3.61q.77-2.02 1.41-5.6.64-3.59.64-7.81zM24-24.13l-2.4.1q-.74.03-.74-.35 0-.39.39-.77 4.09-3.78 13.82-3.78 3.33 0 5.25.58l.64.19q.77.32.77.7 0 .32-.45.52-1.73.51-3.33 1.63-1.6 1.12-1.6 1.57l.39.44q2.04 1.16 3.16 3.65 1.12 2.5 1.25 4.42l.13 1.98q0 6.34-3.52 10.43-3.52 4.1-9.6 4.1-3.07 0-5.31-1.09-2.24-1.09-3.3-2.46-1.05-1.38-1.69-3.11-.77-2.36-.77-4.89t.86-5.09q.87-2.56 1.99-3.78 1.12-1.21 2.52-1.98 1.8-.96 2.88-.96 1.09 0 1.09.45l-.38.64q-1.41 1.66-2.02 4.35-.61 2.69-.61 4.77 0 2.08.52 4.13.51 2.04 1.15 3.04.64.99 1.47 1.5 1.22.77 2.56.77t2.62-1.06q1.28-1.05 1.86-2.78 1.15-3.2 1.15-6.59 0-5.38-2.72-8.32-2.72-2.95-8.03-2.95zm19.65-.83l.19-2.56q.06-.58.9-.58h2.24l-.26-5.12v-.25q0-1.47 2.24-2.82 2.24-1.34 4.1-1.34.57 0 .57.51v.06q-.25 1.73-.51 8.9 2.82 0 3.58-.13.77-.13.84-.13.44 0 .44.77t-.7 1.95q-.7 1.19-1.54 1.25h-2.68q-.07 2.18-.07 7.33t.1 8.48q.09 3.33.22 5.02.13 1.7.29 2.72.16 1.03.26 1.48.09.44.09.57 0 .64-.83.71-2.5 0-4.96-.71-2.46-.7-2.46-2.43 1.34-10.75 1.34-23.1-1.73 0-2.62.12h-.07q-.57 0-.7-.7zm14.33 0l.2-2.56q.06-.58.89-.58h2.24l-.25-5.12v-.25q0-1.47 2.24-2.82 2.24-1.34 4.09-1.34.58 0 .58.51v.06q-.26 1.73-.51 8.9 2.81 0 3.58-.13t.83-.13q.45 0 .45.77t-.7 1.95q-.71 1.19-1.54 1.25h-2.69q-.06 2.18-.06 7.33t.09 8.48q.1 3.33.23 5.02.13 1.7.29 2.72.16 1.03.25 1.48.1.44.1.57 0 .64-.83.71-2.5 0-4.96-.71-2.47-.7-2.47-2.43 1.35-10.75 1.35-23.1-1.73 0-2.63.12h-.06q-.58 0-.71-.7zm36.68 5.76l-.13 8.19q0 8.51 1.85 10.24.26.26.26.58 0 .96-4.13.96t-4.38-2.43q-.07-.58-.07-2.37l.26-10.24q0-.45-.51-.45-3.07 0-5.76 1.73t-2.69 4.41q0 1.41.77 2.37.77.96 1.89.96 1.12 0 1.85-.45.74-.44.87-.51 1.08.13 1.08 2.27 0 2.15-1.98 3.46T79.68.83q-2.18 0-3.74-.77-1.57-.76-2.28-1.72-.7-.96-1.15-2.18-.45-1.47-.45-2.56 0-4.48 2.82-7.17 2.82-2.69 7.23-3.84 5.83-1.15 6.08-2.11.19-.7.19-2.37 0-3.39-3.45-3.39-1.47 0-2.63.93-1.15.93-1.15 2.33l.39 1.54q-.13 1.09-2.31 1.28l-.7.06q-1.92 0-3.04-.96t-1.12-2.56q0-1.02.67-2.27t1.7-2.01q1.02-.77 3.16-1.38 2.15-.61 4.13-.61 1.99 0 3.07.13 1.09.13 2.98.61t3.14 1.82q1.24 1.35 1.34 2.85.1 1.5.1 4.32zm11.45 7.42l-.83-3.2q-.38-1.4-2.05-9.15-1.66-7.74-3.39-12.35-1.73-4.61-4.1-6.14-.64-.32-.64-.84 0-1.21 3.46-1.98t5.34-.77q1.89 0 2.28 1.09 1.15 2.37 2.94 10.62 3.65 17.28 5.38 21.76.38.9.96.9.57 0 1.18-1.12t1.66-3.2q1.06-2.08 2.85-7.39t1.79-9.22q0-6.01-3.96-8.51-.32-.38-.32-.83 0-1.35 3.71-2.69 3.71-1.34 6.72-1.34 1.98 0 1.98 1.85 0 5.76-2.3 13.35-2.31 7.58-5.51 14.08-3.2 6.49-5.95 11.23-4.35 7.36-5.5 7.36-.58 0-1.09-.9-1.92-2.75-4.61-12.61zm32.39-22.46l-1.54-.06q-1.73 0-2.24.83-.13.19-.32.19-.83 0-.83-2.85t.86-3.61q.87-.77 3.01-.77 2.14 0 2.91.73.77.74.77 2.47 0 1.73-.58 2.4-.57.67-2.04.67zm-5.12 32.32l.7-14.91q0-5.31-1.22-7.23-.38-.64-.89-.96-.39-.13-.39-.52 0-1.15 3.27-2.24 3.26-1.08 4.77-1.08 1.5 0 1.56.76 0 1.28-.35 7.27-.35 5.98-.35 12.57 0 6.6.77 8.2.19.32.19.64 0 .83-2.43.83T134.02.13q-.64-.32-.64-2.05zm24.76-26.82q1.16 0 2.08.29.93.29 1 .29l.38-.32-.26-6.98q-.12-1.79-.76-3.07-.64-1.28-1.16-1.66l-.57-.32q-.39-.26-.39-.58 0-.96 2.98-2.24 2.98-1.28 4.64-1.28 1.66 0 1.79.71.32 2.17.32 8.28 0 6.12-.29 12-.28 5.89-.28 13.35 0 7.45.96 9.37.25.45.25.84 0 .96-2.75.96-5.25 0-5.25-2.5-.13-1.02-.13-3.17 0-2.14.42-8 .42-5.85.42-9.02t-3.17-3.17q-3.17 0-4.83 3.71-1.67 3.71-1.67 7.43 0 7.87 3.97 7.87.58 0 1.12-.23.54-.22.67-.22.51 0 .8.64.29.64.29 1.28 0 2.18-1.73 3.68T152.77.7q-3.84 0-5.79-3.36-1.96-3.36-1.96-8.35 0-6.33 3.01-11.77 1.54-2.69 4.16-4.32 2.63-1.64 5.95-1.64zm19.65 12.48l.07 1.6q0 .39.51.39 2.05-.19 3.58-1.06 1.54-.86 2.31-1.95 1.53-2.37 1.66-4.1l.06-.76q0-3.46-2.75-3.46-2.05 0-3.33 1.79-2.11 2.82-2.11 7.55zm13.95 8.52q0 2.43-.99 4.25-.99 1.83-2.24 2.69-1.25.86-2.91 1.38-2.11.64-4.03.64-5.38 0-7.94-4.04-2.56-4.03-2.56-10.27 0-6.24 3.17-11.1 3.17-4.87 9.5-4.87 5.76 0 7.81 4.04.83 1.53.83 2.91 0 1.37-.12 2.17-.13.8-.9 2.4-.77 1.6-2.05 2.88-1.28 1.28-4.03 2.44-2.75 1.15-6.46 1.53-.52 0-.52.45 0 .58.42 1.7t.93 1.88q1.41 1.8 4.16 1.8t4.67-1.8q1.02-.96 1.66-2.36.26-.52.68-.52.41 0 .67.71.25.7.25 1.09zm9.16-16.39l-2.4.1q-.74.03-.74-.35 0-.39.38-.77 4.1-3.78 13.83-3.78 3.33 0 5.25.58l.64.19q.76.32.76.7 0 .32-.44.52-1.73.51-3.33 1.63-1.6 1.12-1.6 1.57l.38.44q2.05 1.16 3.17 3.65 1.12 2.5 1.25 4.42l.13 1.98q0 6.34-3.52 10.43-3.52 4.1-9.6 4.1-3.08 0-5.32-1.09t-3.29-2.46q-1.06-1.38-1.7-3.11-.77-2.36-.77-4.89t.87-5.09q.86-2.56 1.98-3.78 1.12-1.21 2.53-1.98 1.79-.96 2.88-.96 1.09 0 1.09.45l-.39.64q-1.4 1.66-2.01 4.35-.61 2.69-.61 4.77 0 2.08.51 4.13.51 2.04 1.15 3.04.64.99 1.48 1.5 1.21.77 2.56.77 1.34 0 2.62-1.06 1.28-1.05 1.86-2.78 1.15-3.2 1.15-6.59 0-5.38-2.72-8.32-2.72-2.95-8.03-2.95z" fill="url(#editing-gradow-gradient)" transform="translate(140.512 102.268)" filter="url(#editing-gradow-filter)"/><style></style></svg>